# xmcd
#
# Track frame offsets:
#	150
#	14355
#	29040
#	44207
#	58417
#	72335
#	87700
#	101677
#	116137
#	130247
#	144485
#	158082
#	171487
#	187557
#	202722
#	217370
#	232497
#	246245
#
# Disc length: 3451 seconds
#
# Revision: 0
# Processed by: cddbd v1.5.2PL0 Copyright (c) Steve Scherf et al.
# Submitted via: EasyCDDAExtractor 16.0.6.1
#
DISCID=210d7912
DTITLE=Πάλλα Βούλα - Οι μεγάλες επιτυχίες-Β. Πάλλα
DYEAR=1994
DGENRE=Λαϊκή
TTITLE0=Μαύρα μάτια στο ποτήρι [Βούλα Πάλλα]
TTITLE1=Νυφούλα σε στολίζουνε [Βούλα Πάλλα]
TTITLE2=Η παντρεμένη [Βούλα Πάλλα]
TTITLE3=Θέλω άπονη καρδιά [Βούλα Πάλλα]
TTITLE4=Γλυκιά μου αγάπη [Βούλα Πάλλα-Κώστας Καρουσάκης]
TTITLE5=Γύρισε πάλι κοντά μου [Μιχάλης Πρωτόπαππας]
TTITLE6=Το ταξίδι της ζωής [Βούλα Πάλλα-Μαρία Ρηγοπούλου]
TTITLE7=Συγχώρα με [Βούλα Πάλλα]
TTITLE8=Ένας λεβέντης στο Μωριά [Βούλα Πάλλα]
TTITLE9=Τραγούδι του γάμου [διασκ. Χρήστος Μαραγκός]
TTITLE10=Όρκο έπαιρνα για σένα [Θόδωρος Δερβενιώτης-Γιώργος Σαμολαδάς]
TTITLE11=Μοιάζω μ' ένα δένδρο μαραμένο [Λεονάρδος Μπουρνέλης-Βούλα Πάλλα]
TTITLE12=Παιδί μου γύρνα πίσω [Μιχάλης Πρωτόπαππας]
TTITLE13=Σαν πουλί κυνηγημένο [Βούλα Πάλλα]
TTITLE14=Σκοτείνιασε η γειτονιά [Γιάννης Γούβαλης]
TTITLE15=Απ' τη ζωή μου πέρασες [Βούλα Πάλλα]
TTITLE16=Τ' άδικο σε περιμένει [Λεονάρδος Μπουρνέλης]
TTITLE17=Κλείσε την πόρτα [Γιάννης Γούβαλης]
EXTD=
EXTT0=
EXTT1=
EXTT2=
EXTT3=
EXTT4=
EXTT5=
EXTT6=
EXTT7=
EXTT8=
EXTT9=
EXTT10=
EXTT11=
EXTT12=
EXTT13=
EXTT14=
EXTT15=
EXTT16=
EXTT17=
PLAYORDER=
